<?xml version="1.0" encoding="utf-8"?>
<!-- Generator: Adobe Illustrator 16.0.0, SVG Export Plug-In . SVG Version: 6.00 Build 0)  -->
<!DOCTYPE svg PUBLIC "-//W3C//DTD SVG 1.1//EN" "http://www.w3.org/Graphics/SVG/1.1/DTD/svg11.dtd">
<svg version="1.1" id="圖層_1" xmlns="http://www.w3.org/2000/svg" xmlns:xlink="http://www.w3.org/1999/xlink" x="0px" y="0px"
	 width="370.52px" height="444.072px" viewBox="0 0 370.52 444.072" enable-background="new 0 0 370.52 444.072"
	 xml:space="preserve">
<g id="圖層_1_1_">
	<g>
		
			<rect x="233.12" y="-19.082" transform="matrix(-0.7071 0.7071 -0.7071 -0.7071 521.1549 6.8303)" fill="#595757" stroke="#595757" stroke-miterlimit="10" width="52.086" height="260.864"/>
		
			<rect x="239.21" y="131.081" transform="matrix(0.7071 0.7071 -0.7071 0.7071 256.5256 -113.4879)" fill="#595757" stroke="#595757" stroke-miterlimit="10" width="52.084" height="243.645"/>
		
			<rect x="159.671" y="135.621" transform="matrix(0.7071 0.7071 -0.7071 0.7071 211.8085 -66.1151)" fill="#7BEEB2" width="52.083" height="173.993"/>
		
			<rect x="85.312" y="202.289" transform="matrix(0.7071 -0.7071 0.7071 0.7071 -202.657 176.1958)" fill="#595757" stroke="#595757" stroke-miterlimit="10" width="52.085" height="260.865"/>
		
			<rect x="79.159" y="69.497" transform="matrix(-0.7071 -0.7071 0.7071 -0.7071 44.364 400.8409)" fill="#595757" stroke="#595757" stroke-miterlimit="10" width="52.084" height="243.471"/>
	</g>
	<g opacity="0.3" enable-background="new    ">
		<g>
			<defs>
				<rect id="SVGID_1_" x="-4095.253" y="-801.903" width="2702.118" height="2526.533"/>
			</defs>
			<clipPath id="SVGID_2_">
				<use xlink:href="#SVGID_1_"  overflow="visible"/>
			</clipPath>
			<g clip-path="url(#SVGID_2_)">
				
					<image overflow="visible" enable-background="new    " width="10003" height="5636" xlink:href="D0AA193.jpeg"  transform="matrix(0.6202 0 0 0.6422 -5502.5244 -1016.6257)">
				</image>
			</g>
		</g>
	</g>
	<g opacity="0.3" enable-background="new    ">
		<g>
			<defs>
				<rect id="SVGID_3_" x="-4096.631" y="-801.903" width="2702.118" height="2526.533"/>
			</defs>
			<clipPath id="SVGID_4_">
				<use xlink:href="#SVGID_3_"  overflow="visible"/>
			</clipPath>
			<g clip-path="url(#SVGID_4_)">
				
					<image overflow="visible" enable-background="new    " width="10003" height="5636" xlink:href="D0AA191.jpeg"  transform="matrix(0.6202 0 0 0.6422 -5503.9014 -1016.6257)">
				</image>
			</g>
		</g>
	</g>
</g>
<g id="grid">
</g>
<g id="圖層_4" display="none">
</g>
<g id="圖層_3">
</g>
</svg>
