<?xml version="1.0" encoding="utf-8"?>
<!-- Generator: Adobe Illustrator 16.0.0, SVG Export Plug-In . SVG Version: 6.00 Build 0)  -->
<!DOCTYPE svg PUBLIC "-//W3C//DTD SVG 1.1//EN" "http://www.w3.org/Graphics/SVG/1.1/DTD/svg11.dtd">
<svg version="1.1" xmlns="http://www.w3.org/2000/svg" xmlns:xlink="http://www.w3.org/1999/xlink" x="0px" y="0px"
	 width="1032.549px" height="191.496px" viewBox="0 0 1032.549 191.496" enable-background="new 0 0 1032.549 191.496"
	 xml:space="preserve">
<g id="圖層_1">
	<g>
		<g>
			<g>
				<path fill="#595757" d="M185.423,43.673h28.147c33.306,0,52.316,18.421,52.316,53.79c0,35.221-19.011,54.674-51.432,54.674
					h-29.032V43.673z M212.392,138.137c23.284,0,35.811-13.705,35.811-40.674c0-27.116-12.526-39.938-35.811-39.938h-9.874v80.611
					H212.392z"/>
				<path fill="#595757" d="M274.723,97.463c0-34.927,19.305-55.854,47.158-55.854c27.853,0,47.305,20.927,47.305,55.854
					s-19.452,56.59-47.305,56.59C294.027,154.053,274.723,132.39,274.723,97.463z M351.648,97.463
					c0-25.495-11.789-40.969-29.768-40.969c-17.979,0-29.621,15.474-29.621,40.969s11.642,41.705,29.621,41.705
					C339.859,139.168,351.648,122.958,351.648,97.463z"/>
				<path fill="#595757" d="M383.918,43.673h17.536l35.958,63.663l11.348,22.99h0.736c-0.884-11.2-2.21-24.316-2.21-36.105V43.673
					h16.211v108.464H445.96l-35.958-63.958l-11.348-22.695h-0.736c0.884,11.2,2.21,23.727,2.21,35.517v51.137h-16.21V43.673z"/>
				<path fill="#595757" d="M478.375,98.199c0-35.368,21.811-56.59,50.548-56.59c15.326,0,25.643,6.779,32.273,13.706l-9.284,10.905
					c-5.305-5.453-11.937-9.727-22.399-9.727c-20.19,0-33.601,15.621-33.601,41.116c0,25.789,11.937,41.558,34.337,41.558
					c6.632,0,13.264-1.916,17.095-5.305v-25.495h-21.516v-14h36.989v47.011c-7.221,7.221-19.452,12.674-34.337,12.674
					C499.449,154.053,478.375,133.716,478.375,98.199z"/>
			</g>
		</g>
		<g>
			<g>
				<path fill="#595757" d="M579.419,137.842l3.685-3.831c7.811,9.137,19.158,14.884,31.979,14.884c17.096,0,28-9.284,28-22.695
					c0-14.294-8.989-18.716-19.747-23.578l-16.358-7.369c-9.283-4.126-21.811-10.463-21.811-26.231
					c0-15.474,12.969-25.79,30.358-25.79c12.969,0,22.989,5.896,29.179,12.674l-3.389,3.685c-6.189-6.632-14.885-11.2-25.79-11.2
					c-14.884,0-24.758,7.958-24.758,20.042c0,13.411,11.2,18.274,18.716,21.663l16.357,7.369
					c12.085,5.452,22.695,11.789,22.695,28.295c0,16.357-13.264,28.295-33.453,28.295
					C599.314,154.053,587.524,147.273,579.419,137.842z"/>
				<path fill="#595757" d="M683.752,50.01h-34.484v-4.863h74.717v4.863H689.5v102.127h-5.748V50.01z"/>
				<path fill="#595757" d="M736.949,112.053V45.146h5.452v65.727c0,29.327,14.147,38.021,29.621,38.021
					c15.769,0,30.211-8.694,30.211-38.021V45.146h5.306v66.906c0,33.157-18.127,42-35.517,42S736.949,145.21,736.949,112.053z"/>
				<path fill="#595757" d="M831.699,45.146h24.021c33.158,0,48.043,21.222,48.043,53.2c0,31.832-14.885,53.79-47.895,53.79h-24.17
					V45.146z M854.984,147.273c30.357,0,43.031-20.779,43.031-48.927c0-28.295-12.674-48.337-43.031-48.337h-17.832v97.264H854.984z
					"/>
				<path fill="#595757" d="M921.296,45.146h5.452v106.99h-5.452V45.146z"/>
				<path fill="#595757" d="M944.281,98.347c0-33.747,18.127-55.116,43.475-55.116c25.347,0,43.474,21.369,43.474,55.116
					c0,33.748-18.127,55.706-43.474,55.706C962.408,154.053,944.281,132.095,944.281,98.347z M1025.482,98.347
					c0-30.652-15.18-49.958-37.727-49.958c-22.548,0-37.727,19.306-37.727,49.958c0,30.653,15.179,50.548,37.727,50.548
					C1010.303,148.895,1025.482,129,1025.482,98.347z"/>
			</g>
		</g>
	</g>
	<polygon fill="#595757" points="159.674,79.799 143.74,63.863 143.739,63.864 79.875,0 63.943,15.932 127.807,79.797 71.4,136.207 
		87.332,152.139 143.741,95.731 143.742,95.732 	"/>
	
		<rect x="68.531" y="61.726" transform="matrix(0.7071 0.7071 -0.7071 0.7071 91.4171 -28.2413)" fill="#7BEEB2" width="22.536" height="69.008"/>
	<polygon fill="#595757" points="86.949,56.613 71.018,40.682 15.934,95.763 15.932,95.762 0,111.695 79.799,191.496 95.73,175.561 
		31.865,111.694 	"/>
</g>
<g id="grid" display="none">
</g>
<g id="圖層_3">
</g>
</svg>
