<?xml version="1.0" encoding="utf-8"?>
<!-- Generator: Adobe Illustrator 16.0.0, SVG Export Plug-In . SVG Version: 6.00 Build 0)  -->
<!DOCTYPE svg PUBLIC "-//W3C//DTD SVG 1.1//EN" "http://www.w3.org/Graphics/SVG/1.1/DTD/svg11.dtd">
<svg version="1.1" xmlns="http://www.w3.org/2000/svg" xmlns:xlink="http://www.w3.org/1999/xlink" x="0px" y="0px"
	 width="495.989px" height="95.905px" viewBox="0 0 495.989 95.905" enable-background="new 0 0 495.989 95.905"
	 xml:space="preserve">
<g id="圖層_1">
	<g>
		<g>
			<g>
				
					<rect x="227.837" y="43.674" transform="matrix(-0.707 0.7072 -0.7072 -0.707 449.4254 -42.3226)" fill="#141414" width="11.285" height="56.52"/>
			</g>
			<g>
				
					<rect x="225.969" y="16.198" transform="matrix(0.7071 0.7071 -0.7071 0.7071 97.3991 -151.5221)" fill="#141414" width="11.283" height="51.235"/>
			</g>
			<g>
				
					<rect x="243.868" y="30.43" transform="matrix(0.7071 0.7071 -0.7071 0.7071 106.8095 -162.4513)" fill="#141414" width="11.283" height="34.56"/>
			</g>
			<g>
				
					<rect x="259.861" y="-4.287" transform="matrix(0.7071 -0.7071 0.7071 0.7071 60.8123 194.7601)" fill="#141414" width="11.283" height="56.52"/>
			</g>
			<g>
				
					<rect x="262.057" y="28.61" transform="matrix(-0.7073 -0.7069 0.7069 -0.7073 419.0345 281.0293)" fill="#141414" width="11.286" height="50.3"/>
			</g>
			<g>
				<rect x="304.939" y="42.343" fill="#141414" width="191.05" height="10.163"/>
			</g>
			<g>
				<rect y="41.814" fill="#141414" width="191.049" height="10.163"/>
			</g>
		</g>
	</g>
</g>
<g id="grid">
</g>
<g id="圖層_3">
</g>
</svg>
